<svg xmlns="http://www.w3.org/2000/svg" viewBox="0 0 24 24"><path d="M12,.74h0A11.25,11.25,0,0,1,23.26,12h0A11.26,11.26,0,0,1,12,23.25h0A11.26,11.26,0,0,1,.75,12h0A11.26,11.26,0,0,1,12,.74Z" fill="#fff"/><path d="M8.84,10.84h-2V9H8.66C10.54,9,10.3,10.84,8.84,10.84Zm5.79,1.05h2.62a1.31,1.31,0,1,0-2.62,0Zm-5.9.4H6.88v2H8.7C10.48,14.23,10.37,12.29,8.73,12.29ZM24,12A12,12,0,1,1,12,0,12,12,0,0,1,24,12Zm-13.36-.73c1.67-.86,1.61-4-1.58-4H5V16H8.77C12.73,16,12.66,12,10.64,11.27ZM14,8.1h4V7.23H14Zm4.94,3.69c-.54-3.5-6.05-3.71-6.05.88s5.18,3.81,5.95,1.56H17A1.41,1.41,0,0,1,14.59,13H19A8.18,8.18,0,0,0,18.94,11.79Z"/></svg>