<svg xmlns="http://www.w3.org/2000/svg" viewBox="0 0 256 256"><ellipse cx="128" cy="128" rx="128" ry="128"/><path d="M128,56.72c23.22,0,26,.08,35.14.5,8.47.39,13.08,1.81,16.14,3a28.74,28.74,0,0,1,16.5,16.5c1.19,3.06,2.61,7.67,3,16.14.42,9.17.5,11.92.5,35.14s-.08,26-.5,35.14c-.39,8.47-1.81,13.08-3,16.14a28.74,28.74,0,0,1-16.5,16.5c-3.06,1.19-7.67,2.61-16.14,3-9.17.42-11.92.5-35.14.5s-26-.08-35.14-.5c-8.47-.39-13.08-1.81-16.14-3a28.74,28.74,0,0,1-16.5-16.5c-1.19-3.06-2.61-7.67-3-16.14-.42-9.17-.5-11.92-.5-35.14s.08-26,.5-35.14c.39-8.47,1.81-13.08,3-16.14a28.74,28.74,0,0,1,16.5-16.5c3.06-1.19,7.67-2.61,16.14-3,9.17-.42,11.92-.5,35.14-.5m0-15.67c-23.61,0-26.58.1-35.85.52s-15.58,1.89-21.11,4A44.48,44.48,0,0,0,45.61,71c-2.15,5.54-3.62,11.86-4,21.11s-.52,12.24-.52,35.85.1,26.58.52,35.85,1.89,15.58,4,21.11A44.48,44.48,0,0,0,71,210.39c5.53,2.15,11.86,3.62,21.11,4s12.24.52,35.85.52,26.58-.1,35.85-.52,15.57-1.89,21.11-4A44.48,44.48,0,0,0,210.39,185c2.15-5.53,3.61-11.86,4-21.11S215,151.61,215,128s-.1-26.58-.52-35.85-1.89-15.57-4-21.11A44.48,44.48,0,0,0,185,45.61c-5.54-2.15-11.86-3.61-21.11-4S151.61,41.05,128,41.05Zm0,42.3A44.65,44.65,0,1,0,172.65,128,44.65,44.65,0,0,0,128,83.35ZM128,157a29,29,0,1,1,29-29A29,29,0,0,1,128,157Zm56.85-75.39a10.44,10.44,0,1,1-10.44-10.44A10.43,10.43,0,0,1,184.85,81.59Z" fill="#fff"/></svg>