<svg xmlns="http://www.w3.org/2000/svg" viewBox="0 0 300 300"><path d="M150,0h0A150,150,0,0,1,300,150h0A150,150,0,0,1,150,300h0A150,150,0,0,1,0,150H0A150,150,0,0,1,150,0Z"/><path d="M149.94,79.22s-63.22,0-79.09,4.13a26.14,26.14,0,0,0-17.86,18c-4.13,15.86-4.13,48.72-4.13,48.72s0,33,4.13,48.6a25.73,25.73,0,0,0,17.86,17.87c16,4.25,79.09,4.25,79.09,4.25s63.34,0,79.21-4.13a25.14,25.14,0,0,0,17.74-17.86c4.25-15.74,4.25-48.6,4.25-48.6s.12-33-4.25-48.85A25,25,0,0,0,229.15,83.6C213.28,79.22,149.94,79.22,149.94,79.22ZM129.82,119.7l52.6,30.36-52.6,30.24Z" fill="#fff"/></svg>